<svg width="512" height="512" viewBox="0 0 512 512" fill="none" xmlns="http://www.w3.org/2000/svg">
<g clip-path="url(#clip0_3_7)">
<rect width="512" height="512" fill="#EFECF3"/>
<path d="M244 333H186.545V146.818H246.545C264.606 146.818 280.061 150.545 292.909 158C305.758 165.394 315.606 176.03 322.455 189.909C329.303 203.727 332.727 220.273 332.727 239.545C332.727 258.939 329.273 275.636 322.364 289.636C315.455 303.576 305.394 314.303 292.182 321.818C278.97 329.273 262.909 333 244 333ZM209.091 313H242.545C257.939 313 270.697 310.03 280.818 304.091C290.939 298.152 298.485 289.697 303.455 278.727C308.424 267.758 310.909 254.697 310.909 239.545C310.909 224.515 308.455 211.576 303.545 200.727C298.636 189.818 291.303 181.455 281.545 175.636C271.788 169.758 259.636 166.818 245.091 166.818H209.091V313Z" fill="#81E7F2"/>
</g>
<defs>
<clipPath id="clip0_3_7">
<rect width="512" height="512" fill="white"/>
</clipPath>
</defs>
</svg>
